<svg viewBox="0 0 512 512" xmlns="http://www.w3.org/2000/svg">
<defs>
 <radialGradient id="parch" cx="0.5" cy="0.44" r="0.75">
   <stop offset="0" stop-color="#f6e9c6"/><stop offset="0.55" stop-color="#e6d0a0"/>
   <stop offset="1" stop-color="#c2a066"/>
 </radialGradient>
 <radialGradient id="vig" cx="0.5" cy="0.5" r="0.72">
   <stop offset="0.6" stop-color="#5a3c19" stop-opacity="0"/>
   <stop offset="1" stop-color="#5a3c19" stop-opacity="0.5"/>
 </radialGradient>
 <radialGradient id="glow" cx="0.5" cy="0.47" r="0.5">
   <stop offset="0" stop-color="#ffdf9a" stop-opacity="0.75"/>
   <stop offset="0.5" stop-color="#f2b24c" stop-opacity="0"/>
   <stop offset="1" stop-color="#f2b24c" stop-opacity="0"/>
 </radialGradient>
 <linearGradient id="goldband" x1="0" y1="0" x2="0.4" y2="1">
   <stop offset="0" stop-color="#f6d488"/><stop offset="0.5" stop-color="#d99a3c"/>
   <stop offset="1" stop-color="#9c6420"/>
 </linearGradient>
 <clipPath id="scene"><rect x="46" y="46" width="420" height="420" rx="80"/></clipPath>
</defs>
<rect width="512" height="512" rx="112" fill="#c2a066"/>
<g clip-path="url(#scene)">
  <rect x="46" y="46" width="420" height="420" fill="url(#parch)"/>
  <g fill="#e8b24e" opacity="0.14"><path d="M300.0 257.3 L555.8 265.5 L300.0 257.5 Z"/><path d="M296.8 272.6 L533.7 369.5 L296.7 272.7 Z"/><path d="M284.8 289.3 L451.5 483.6 L284.6 289.5 Z"/><path d="M269.2 298.0 L345.3 542.4 L269.0 298.0 Z"/><path d="M251.2 299.7 L222.4 554.1 L251.0 299.7 Z"/><path d="M233.9 294.0 L104.5 515.0 L233.7 293.9 Z"/><path d="M220.6 282.1 L14.2 433.5 L220.5 282.0 Z"/><path d="M212.8 264.6 L-38.4 313.8 L212.8 264.3 Z"/><path d="M213.2 245.6 L-35.3 184.5 L213.3 245.4 Z"/><path d="M220.3 230.3 L12.6 80.6 L220.4 230.2 Z"/><path d="M232.7 218.7 L97.7 1.2 L232.8 218.6 Z"/><path d="M251.2 212.3 L223.9 -42.3 L251.4 212.2 Z"/><path d="M269.1 214.0 L346.3 -30.1 L269.4 214.1 Z"/><path d="M285.4 223.3 L457.1 33.4 L285.6 223.4 Z"/><path d="M295.8 237.3 L527.8 129.0 L295.9 237.4 Z"/></g>
  <rect x="46" y="46" width="420" height="420" fill="url(#glow)"/>
  <g transform="translate(256 262) scale(1.14) translate(-256 -250)"><g stroke="#3f2712" stroke-linejoin="round" stroke-linecap="round">
  <!-- blade -->
  <path d="M256 96 L288 196 L288 300 L224 300 L224 196 Z" fill="#dcd3bf" stroke-width="5"/>
  <path d="M256 96 L288 196 L288 300 L256 300 Z" fill="#a99f84" stroke="none" opacity="0.85"/>
  <path d="M256 96 L233 196 L233 300 L224 300 L224 196 Z" fill="#fbf6e7" stroke="none" opacity="0.9"/>
  <path d="M256 96 L288 196 L288 300 L224 300 L224 196 Z" fill="none" stroke-width="5"/>
  <rect x="250" y="128" width="12" height="162" rx="6" fill="#8f8064" stroke="none"/>
  <rect x="250" y="128" width="12" height="162" rx="6" fill="#7d735a" stroke="none" opacity="0.7"/>
  <!-- crossguard -->
  <path d="M168 300 L150 312 L168 326 Z" fill="#e3a94e" stroke-width="4"/>
  <path d="M344 300 L362 312 L344 326 Z" fill="#e3a94e" stroke-width="4"/>
  <rect x="168" y="300" width="176" height="26" rx="13" fill="#e3a94e" stroke-width="5"/>
  <rect x="172" y="303" width="168" height="7" rx="3.5" fill="#f8dc9a" stroke="none"/>
  <rect x="176" y="318" width="160" height="6" rx="3" fill="#a86f27" stroke="none" opacity="0.6"/>
  <circle cx="256" cy="313" r="9.5" fill="#f0a63c" stroke-width="3.5"/>
  <circle cx="252.5" cy="309.5" r="3" fill="#ffe6b8" stroke="none"/>
  <!-- grip -->
  <rect x="242" y="326" width="28" height="70" rx="9" fill="#7a4a22" stroke-width="5"/>
  <g stroke="#b0793a" stroke-width="5">
    <line x1="245" y1="339" x2="267" y2="333"/><line x1="245" y1="354" x2="267" y2="348"/>
    <line x1="245" y1="369" x2="267" y2="363"/><line x1="245" y1="384" x2="267" y2="378"/>
  </g>
  <rect x="242" y="326" width="28" height="70" rx="9" fill="none" stroke-width="5"/>
  <!-- pommel -->
  <circle cx="256" cy="405" r="17" fill="#e3a94e" stroke-width="5"/>
  <circle cx="256" cy="405" r="7.5" fill="#c0392b" stroke="#3f2712" stroke-width="2.5"/>
  <circle cx="253" cy="402" r="2.4" fill="#f3b0a6" stroke="none"/>
</g></g>
  <rect x="46" y="46" width="420" height="420" fill="url(#vig)"/>
</g>
<path d="M124.6 29.1 L134.1 27.8 L144.6 28.6 L154.3 27.5 L164.4 27.4 L175.5 30.0 L185.6 30.2 L194.7 26.4 L205.5 29.1 L215.6 29.3 L225.2 25.6 L235.7 28.1 L245.8 26.4 L256.0 28.1 L266.2 27.3 L276.2 29.7 L286.5 27.4 L296.9 26.3 L306.8 27.9 L317.2 26.9 L327.3 27.2 L336.5 30.0 L347.8 26.8 L357.7 27.6 L367.3 28.9 L376.8 30.0 L388.9 26.5 L399.5 28.8 L411.6 29.9 L423.1 32.8 L433.3 38.2 L443.9 43.5 L451.3 52.5 L460.9 59.3 L466.8 69.6 L474.6 78.1 L479.2 88.9 L479.6 102.1 L481.8 113.4 L482.8 124.7 L486.0 133.1 L483.7 144.4 L484.6 154.2 L483.1 165.0 L484.0 174.8 L483.5 185.1 L483.3 195.3 L484.4 205.1 L484.4 215.3 L485.9 225.3 L484.9 235.6 L486.1 245.8 L485.7 256.0 L486.4 266.3 L484.8 276.4 L482.4 286.2 L485.7 296.9 L486.2 307.3 L485.9 317.4 L484.3 327.2 L485.0 337.6 L482.7 346.9 L485.5 358.2 L484.3 367.8 L483.1 377.4 L482.2 387.0 L484.7 400.5 L483.1 412.3 L476.2 420.9 L474.1 433.5 L466.7 442.2 L458.6 450.5 L451.0 459.1 L443.4 468.0 L433.7 474.4 L420.7 476.0 L411.3 481.7 L398.4 481.5 L388.5 484.9 L377.5 483.3 L368.5 485.6 L358.5 486.1 L347.4 484.0 L338.0 486.3 L326.8 483.1 L316.4 482.0 L306.9 484.5 L296.2 481.8 L286.3 482.6 L276.3 483.6 L266.2 484.5 L256.0 482.3 L245.9 481.8 L235.5 485.8 L225.7 483.1 L215.0 486.2 L204.8 485.9 L195.2 483.4 L185.0 483.8 L174.7 484.1 L164.4 484.6 L154.3 484.4 L144.2 484.3 L133.9 484.5 L122.9 485.8 L112.4 483.3 L101.2 480.9 L89.3 478.6 L80.2 472.0 L70.1 466.3 L58.8 461.5 L52.1 451.7 L44.8 442.7 L40.8 431.1 L34.6 421.8 L30.5 411.2 L30.6 398.3 L27.5 388.3 L27.4 378.1 L29.9 366.8 L27.4 357.8 L28.2 347.3 L27.2 337.5 L28.7 326.9 L27.0 317.2 L26.9 307.0 L30.3 296.2 L30.1 286.2 L27.2 276.4 L25.8 266.3 L29.2 256.0 L28.2 245.9 L27.6 235.7 L28.9 225.7 L28.6 215.5 L28.9 205.4 L28.6 195.2 L27.6 184.8 L28.9 175.1 L28.5 164.8 L26.8 153.9 L30.0 145.3 L27.7 134.0 L27.0 123.4 L29.5 112.9 L31.9 101.8 L33.1 89.1 L40.0 80.2 L46.1 70.5 L52.4 60.6 L59.7 51.5 L70.7 46.4 L79.9 39.7 L90.4 34.9 L100.1 29.5 L112.6 28.9 Z M116.2 47.9 L106.7 49.4 L98.4 53.1 L90.3 57.6 L81.1 61.2 L74.7 68.0 L66.9 73.6 L61.3 81.3 L56.3 89.3 L52.2 97.7 L49.3 106.7 L49.0 116.9 L46.8 125.2 L47.0 135.4 L48.8 146.4 L49.5 156.7 L48.6 166.3 L48.0 176.0 L47.5 185.8 L46.2 195.5 L46.1 205.5 L48.5 216.1 L49.4 226.2 L48.4 236.0 L48.8 246.0 L48.1 256.0 L47.1 266.0 L48.0 276.0 L48.2 286.0 L46.1 296.4 L46.6 306.3 L46.1 316.6 L48.2 325.9 L48.8 335.7 L46.7 346.5 L49.3 355.4 L48.2 365.9 L49.4 375.2 L47.0 386.6 L48.1 395.7 L48.8 405.7 L52.3 414.2 L58.1 421.3 L60.8 431.2 L67.6 437.7 L75.6 443.0 L80.6 451.4 L90.9 453.7 L98.5 458.7 L107.4 461.6 L115.9 464.5 L125.8 464.3 L136.5 463.1 L146.2 463.7 L155.9 464.1 L165.2 465.8 L176.6 462.3 L186.4 462.7 L195.4 465.9 L205.8 464.7 L216.3 462.6 L226.2 462.3 L236.1 462.7 L246.0 463.3 L256.0 463.2 L266.0 464.2 L276.2 465.7 L285.9 463.4 L296.3 465.6 L306.1 464.4 L315.8 463.4 L325.5 462.5 L336.6 465.7 L345.3 462.3 L356.6 465.3 L366.6 465.1 L376.5 464.9 L385.2 462.7 L396.0 464.3 L404.7 461.8 L413.3 458.5 L421.8 454.6 L431.5 451.5 L438.9 445.6 L445.1 438.4 L449.3 429.5 L456.5 423.4 L457.9 412.9 L460.3 403.6 L461.8 394.3 L464.3 386.2 L463.5 375.7 L465.0 366.5 L462.3 355.2 L465.3 346.5 L464.9 336.4 L462.2 325.4 L465.8 316.5 L462.3 305.6 L464.8 296.2 L463.9 286.0 L463.3 275.9 L463.9 266.0 L465.3 256.0 L463.2 246.0 L463.4 236.1 L464.7 225.9 L462.0 216.4 L464.4 205.9 L463.2 196.2 L462.4 186.6 L462.7 176.5 L462.8 166.5 L463.5 156.2 L463.3 146.4 L465.4 135.2 L465.6 125.0 L464.1 116.2 L463.2 106.3 L458.0 99.1 L455.6 89.3 L450.3 81.6 L445.7 73.0 L437.1 68.2 L431.3 60.7 L423.5 55.5 L413.0 54.0 L404.0 51.2 L396.2 47.3 L384.9 49.7 L375.3 49.3 L366.2 47.6 L355.4 49.3 L346.5 46.9 L335.5 49.3 L326.3 47.0 L316.5 46.4 L305.8 48.9 L295.8 49.1 L285.7 49.9 L276.0 47.7 L266.0 47.8 L256.0 49.0 L246.0 48.1 L236.1 49.5 L225.8 46.4 L215.9 47.4 L205.6 46.3 L196.0 48.1 L186.6 49.8 L175.4 46.4 L165.6 47.1 L155.2 46.4 L145.4 47.0 L135.5 47.2 L125.7 47.6 Z" fill-rule="evenodd" fill="url(#goldband)"/>
<path d="M124.6 29.1 L134.1 27.8 L144.6 28.6 L154.3 27.5 L164.4 27.4 L175.5 30.0 L185.6 30.2 L194.7 26.4 L205.5 29.1 L215.6 29.3 L225.2 25.6 L235.7 28.1 L245.8 26.4 L256.0 28.1 L266.2 27.3 L276.2 29.7 L286.5 27.4 L296.9 26.3 L306.8 27.9 L317.2 26.9 L327.3 27.2 L336.5 30.0 L347.8 26.8 L357.7 27.6 L367.3 28.9 L376.8 30.0 L388.9 26.5 L399.5 28.8 L411.6 29.9 L423.1 32.8 L433.3 38.2 L443.9 43.5 L451.3 52.5 L460.9 59.3 L466.8 69.6 L474.6 78.1 L479.2 88.9 L479.6 102.1 L481.8 113.4 L482.8 124.7 L486.0 133.1 L483.7 144.4 L484.6 154.2 L483.1 165.0 L484.0 174.8 L483.5 185.1 L483.3 195.3 L484.4 205.1 L484.4 215.3 L485.9 225.3 L484.9 235.6 L486.1 245.8 L485.7 256.0 L486.4 266.3 L484.8 276.4 L482.4 286.2 L485.7 296.9 L486.2 307.3 L485.9 317.4 L484.3 327.2 L485.0 337.6 L482.7 346.9 L485.5 358.2 L484.3 367.8 L483.1 377.4 L482.2 387.0 L484.7 400.5 L483.1 412.3 L476.2 420.9 L474.1 433.5 L466.7 442.2 L458.6 450.5 L451.0 459.1 L443.4 468.0 L433.7 474.4 L420.7 476.0 L411.3 481.7 L398.4 481.5 L388.5 484.9 L377.5 483.3 L368.5 485.6 L358.5 486.1 L347.4 484.0 L338.0 486.3 L326.8 483.1 L316.4 482.0 L306.9 484.5 L296.2 481.8 L286.3 482.6 L276.3 483.6 L266.2 484.5 L256.0 482.3 L245.9 481.8 L235.5 485.8 L225.7 483.1 L215.0 486.2 L204.8 485.9 L195.2 483.4 L185.0 483.8 L174.7 484.1 L164.4 484.6 L154.3 484.4 L144.2 484.3 L133.9 484.5 L122.9 485.8 L112.4 483.3 L101.2 480.9 L89.3 478.6 L80.2 472.0 L70.1 466.3 L58.8 461.5 L52.1 451.7 L44.8 442.7 L40.8 431.1 L34.6 421.8 L30.5 411.2 L30.6 398.3 L27.5 388.3 L27.4 378.1 L29.9 366.8 L27.4 357.8 L28.2 347.3 L27.2 337.5 L28.7 326.9 L27.0 317.2 L26.9 307.0 L30.3 296.2 L30.1 286.2 L27.2 276.4 L25.8 266.3 L29.2 256.0 L28.2 245.9 L27.6 235.7 L28.9 225.7 L28.6 215.5 L28.9 205.4 L28.6 195.2 L27.6 184.8 L28.9 175.1 L28.5 164.8 L26.8 153.9 L30.0 145.3 L27.7 134.0 L27.0 123.4 L29.5 112.9 L31.9 101.8 L33.1 89.1 L40.0 80.2 L46.1 70.5 L52.4 60.6 L59.7 51.5 L70.7 46.4 L79.9 39.7 L90.4 34.9 L100.1 29.5 L112.6 28.9 Z" fill="none" stroke="#3f2712" stroke-width="4" stroke-linejoin="round"/>
<path d="M125.7 47.6 L135.5 47.2 L145.4 47.0 L155.2 46.4 L165.6 47.1 L175.4 46.4 L186.6 49.8 L196.0 48.1 L205.6 46.3 L215.9 47.4 L225.8 46.4 L236.1 49.5 L246.0 48.1 L256.0 49.0 L266.0 47.8 L276.0 47.7 L285.7 49.9 L295.8 49.1 L305.8 48.9 L316.5 46.4 L326.3 47.0 L335.5 49.3 L346.5 46.9 L355.4 49.3 L366.2 47.6 L375.3 49.3 L384.9 49.7 L396.2 47.3 L404.0 51.2 L413.0 54.0 L423.5 55.5 L431.3 60.7 L437.1 68.2 L445.7 73.0 L450.3 81.6 L455.6 89.3 L458.0 99.1 L463.2 106.3 L464.1 116.2 L465.6 125.0 L465.4 135.2 L463.3 146.4 L463.5 156.2 L462.8 166.5 L462.7 176.5 L462.4 186.6 L463.2 196.2 L464.4 205.9 L462.0 216.4 L464.7 225.9 L463.4 236.1 L463.2 246.0 L465.3 256.0 L463.9 266.0 L463.3 275.9 L463.9 286.0 L464.8 296.2 L462.3 305.6 L465.8 316.5 L462.2 325.4 L464.9 336.4 L465.3 346.5 L462.3 355.2 L465.0 366.5 L463.5 375.7 L464.3 386.2 L461.8 394.3 L460.3 403.6 L457.9 412.9 L456.5 423.4 L449.3 429.5 L445.1 438.4 L438.9 445.6 L431.5 451.5 L421.8 454.6 L413.3 458.5 L404.7 461.8 L396.0 464.3 L385.2 462.7 L376.5 464.9 L366.6 465.1 L356.6 465.3 L345.3 462.3 L336.6 465.7 L325.5 462.5 L315.8 463.4 L306.1 464.4 L296.3 465.6 L285.9 463.4 L276.2 465.7 L266.0 464.2 L256.0 463.2 L246.0 463.3 L236.1 462.7 L226.2 462.3 L216.3 462.6 L205.8 464.7 L195.4 465.9 L186.4 462.7 L176.6 462.3 L165.2 465.8 L155.9 464.1 L146.2 463.7 L136.5 463.1 L125.8 464.3 L115.9 464.5 L107.4 461.6 L98.5 458.7 L90.9 453.7 L80.6 451.4 L75.6 443.0 L67.6 437.7 L60.8 431.2 L58.1 421.3 L52.3 414.2 L48.8 405.7 L48.1 395.7 L47.0 386.6 L49.4 375.2 L48.2 365.9 L49.3 355.4 L46.7 346.5 L48.8 335.7 L48.2 325.9 L46.1 316.6 L46.6 306.3 L46.1 296.4 L48.2 286.0 L48.0 276.0 L47.1 266.0 L48.1 256.0 L48.8 246.0 L48.4 236.0 L49.4 226.2 L48.5 216.1 L46.1 205.5 L46.2 195.5 L47.5 185.8 L48.0 176.0 L48.6 166.3 L49.5 156.7 L48.8 146.4 L47.0 135.4 L46.8 125.2 L49.0 116.9 L49.3 106.7 L52.2 97.7 L56.3 89.3 L61.3 81.3 L66.9 73.6 L74.7 68.0 L81.1 61.2 L90.3 57.6 L98.4 53.1 L106.7 49.4 L116.2 47.9 Z" fill="none" stroke="#3f2712" stroke-width="4" stroke-linejoin="round"/>
<g fill="#f0a63c" stroke="#3f2712" stroke-width="3">
  <circle cx="70" cy="70" r="8"/><circle cx="442" cy="70" r="8"/>
  <circle cx="70" cy="442" r="8"/><circle cx="442" cy="442" r="8"/></g>
</svg>